# xmcd
#
# Track frame offsets:
#  150
#  16019
#  33727
#  54307
#  75011
#  97493
#  119953
#  137336
#  152887
#  170082
#  189010
#  218973
#  232369
#  250076
#
# Disc length: 3560 seconds
#
# Revision: 1
# Processed by: cddbd v1.5.1PL0 Copyright (c) Steve Scherf et al.
# Submitted via: Collectorz.com_Music_Collector 6.9
#
DISCID=be0de60e
DTITLE=Kirk Fletcher - Shades Of Blue
DYEAR=2003
DGENRE=Blues -  Blues Chicago -  Blues Electric -  Blues Guitar
TTITLE0=Blues For Boo Boo
TTITLE1=Bad Boy
TTITLE2=Little By Little
TTITLE3=My Home Is A Prison
TTITLE4=Country Girl
TTITLE5=Welfare Blues
TTITLE6=Don't Go No Further
TTITLE7=Club Zanzibar
TTITLE8=Down Home Woman
TTITLE9=The River's Invitation
TTITLE10=That's Why I'm Cryin'
TTITLE11=Worried Man Blues
TTITLE12=Stranded
TTITLE13=Hip Hug Her
EXTD=
EXTT0=
EXTT1=
EXTT2=
EXTT3=
EXTT4=
EXTT5=
EXTT6=
EXTT7=
EXTT8=
EXTT9=
EXTT10=
EXTT11=
EXTT12=
EXTT13=
PLAYORDER=
